<svg width="151" height="137" viewBox="0 0 151 137" fill="none" xmlns="http://www.w3.org/2000/svg">
<path d="M135.033 0.531719C143.66 12.9101 149.034 27.7333 150.555 43.3391C152.076 58.9448 149.682 74.7162 143.642 88.8847C137.603 103.053 128.156 115.059 116.362 123.555C104.567 132.051 90.8913 136.702 76.8673 136.986C62.8433 137.27 49.0258 133.177 36.9641 125.164C24.9025 117.152 15.0736 105.537 8.57956 91.6227C2.08553 77.7083 -0.81687 62.0443 0.197818 46.3871C1.21251 30.7299 6.10416 15.6987 14.3243 2.97873L24.3798 11.1186C17.5108 21.7477 13.4232 34.3083 12.5753 47.3919C11.7274 60.4755 14.1527 73.5648 19.5793 85.192C25.0059 96.8193 33.2192 106.525 43.2983 113.22C53.3774 119.916 64.9237 123.337 76.6426 123.099C88.3614 122.862 99.7895 118.975 109.645 111.875C119.501 104.776 127.395 94.7437 132.442 82.9041C137.489 71.0645 139.489 57.8855 138.218 44.8449C136.947 31.8042 132.456 19.4175 125.248 9.07378L135.033 0.531719Z" fill="url(#paint0_radial_62_395)"/>
<defs>
<radialGradient id="paint0_radial_62_395" cx="0" cy="0" r="1" gradientUnits="userSpaceOnUse" gradientTransform="translate(138.149 -52.8356) rotate(121.041) scale(334.372 312.127)">
<stop stop-color="#0029FF"/>
<stop offset="0.945064" stop-color="#FF1C1C" stop-opacity="0"/>
</radialGradient>
</defs>
</svg>
