<svg width="151" height="152" viewBox="0 0 151 152" fill="none" xmlns="http://www.w3.org/2000/svg">
<path d="M22.1134 144.251C11.277 132.122 3.99488 116.591 1.2347 99.7193C-1.52549 82.848 0.367002 65.4361 6.66067 49.7975C12.9543 34.1588 23.3512 21.034 36.4695 12.1672C49.5878 3.30042 64.8064 -0.888485 80.1029 0.15718C95.3994 1.20285 110.049 7.43356 122.106 18.0213C134.163 28.6091 143.055 43.0525 147.601 59.4322C152.148 75.8118 152.133 93.3521 147.558 109.722C142.984 126.092 134.067 140.516 121.992 151.078L114.442 140.266C124.556 131.419 132.025 119.337 135.856 105.626C139.687 91.9145 139.7 77.2228 135.892 63.5032C132.084 49.7836 124.636 37.6858 114.537 28.8175C104.438 19.9492 92.1677 14.7304 79.3554 13.8545C66.5431 12.9787 53.796 16.4873 42.8081 23.9141C31.8202 31.3409 23.1118 42.3343 17.8403 55.4332C12.5687 68.5321 10.9835 83.1163 13.2955 97.2477C15.6074 111.379 21.7069 124.388 30.7835 134.547L22.1134 144.251Z" fill="url(#paint0_radial_81_357)"/>
<defs>
<radialGradient id="paint0_radial_81_357" cx="0" cy="0" r="1" gradientUnits="userSpaceOnUse" gradientTransform="translate(138.149 -20.8356) rotate(121.041) scale(334.372 312.127)">
<stop stop-color="#0029FF"/>
<stop offset="0.945064" stop-color="#FF1C1C" stop-opacity="0"/>
</radialGradient>
</defs>
</svg>
