<svg width="512" height="512" viewBox="0 0 512 512" fill="none" xmlns="http://www.w3.org/2000/svg">
<circle cx="256" cy="256" r="256" fill="url(#paint0_linear_104_10)"/>
<path d="M375 298C375 320.647 361.989 341.349 340.554 356.47C319.123 371.587 289.412 381 256.5 381C223.588 381 193.877 371.587 172.446 356.47C151.011 341.349 138 320.647 138 298C138 275.353 151.011 254.651 172.446 239.53C193.877 224.413 223.588 215 256.5 215C289.412 215 319.123 224.413 340.554 239.53C361.989 254.651 375 275.353 375 298Z" stroke="black" stroke-width="4"/>
<path d="M216.5 217C251 212 254 210.5 296.5 218.5" stroke="#6B69AF" stroke-width="9"/>
<path d="M322 167.5C322 204.241 292.437 234 256 234C219.563 234 190 204.241 190 167.5C190 130.759 219.563 101 256 101C292.437 101 322 130.759 322 167.5Z" stroke="black" stroke-width="4"/>
<defs>
<linearGradient id="paint0_linear_104_10" x1="256" y1="0" x2="256" y2="512" gradientUnits="userSpaceOnUse">
<stop offset="0.0404448" stop-color="#904291"/>
<stop offset="0.945976" stop-color="#31A7DF"/>
</linearGradient>
</defs>
</svg>
